<svg t="1624876174496" class="icon" viewBox="0 0 1024 1024" version="1.1" xmlns="http://www.w3.org/2000/svg" p-id="7408" width="200" height="200"><path d="M423.955 377.499c114.52 0 233.63-25.188 305.161-73.212v70.626h66.272V200.29c0-115.08-191.313-177.208-371.32-177.208S52.634 85.21 52.634 200.29v522.446c0 115.079 191.313 177.208 371.32 177.208v-66.16c-189.074 0-305.16-64.704-305.16-111.05V565.679c71.531 47.912 190.528 73.21 305.16 73.21v-66.27c-189.074 0-305.16-64.704-305.16-111.05v-157.17c71.532 47.913 190.641 73.1 305.161 73.1z m0-288.257c189.074 0 305.161 64.703 305.161 111.049S613.03 311.34 423.956 311.34s-305.162-64.704-305.162-111.05S234.993 89.243 423.955 89.243z m296.877 324.527c-164.447 0-250.42 63.248-250.42 125.714v335.722c0 62.465 86.085 125.714 250.42 125.714 163.215 0 249.077-62.353 250.42-124.37h0.112V539.483c-0.112-62.466-86.085-125.714-250.532-125.714z m0 66.159c121.572 0 184.26 41.755 184.26 59.554s-62.688 59.554-184.26 59.554-184.26-41.755-184.26-59.554c0-17.798 62.688-59.554 184.26-59.554z m0 454.832c-121.572 0-184.26-41.755-184.26-59.555v-80.152c41.978 22.837 103.66 38.06 184.26 38.06s142.17-15.224 184.26-38.06v80.152c0.001 17.799-62.688 59.555-184.26 59.555z m0-167.918c-121.572 0-184.26-41.755-184.26-59.554v-80.153c41.978 22.837 103.66 38.061 184.26 38.061s142.17-15.225 184.26-38.06v80.152c0.001 17.8-62.688 59.554-184.26 59.554z" p-id="7409" fill="#fa8fa8"></path></svg>