<svg t="1624876089328" class="icon" viewBox="0 0 1024 1024" version="1.1" xmlns="http://www.w3.org/2000/svg" p-id="5819" width="200" height="200"><path d="M827.345455 842.705455H189.905455a58.181818 58.181818 0 0 1-57.949091-57.949091V304.64a58.181818 58.181818 0 0 1 57.949091-58.181818h637.44a58.181818 58.181818 0 0 1 57.018181 58.181818v480.116364a58.181818 58.181818 0 0 1-57.018181 57.949091zM189.905455 293.003636a11.636364 11.636364 0 0 0-11.403637 11.636364v480.116364a11.403636 11.403636 0 0 0 11.403637 11.403636h637.44a11.403636 11.403636 0 0 0 11.403636-11.403636V304.64a11.636364 11.636364 0 0 0-11.403636-11.636364z" fill="#13227a" p-id="5820"></path><path d="M155.229091 465.221818h714.472727v46.545455H155.229091z" fill="#13227a" p-id="5821"></path><path d="M738.210909 701.905455H492.683636a23.272727 23.272727 0 0 1 0-46.545455h245.527273a23.272727 23.272727 0 0 1 0 46.545455z" fill="#fa8fa8" p-id="5822"></path></svg>