<svg t="1624875955806" class="icon" viewBox="0 0 1024 1024" version="1.1" xmlns="http://www.w3.org/2000/svg" p-id="4721" width="200" height="200"><path d="M193.96228027 123.875a74.98168945 74.98168945 0 0 0-75.5996704 75.65652466v480.82461547a75.59967041 75.59967041 0 0 0 75.5996704 78.6376648h130.05038452v108.84375a41.45663452 41.45663452 0 0 0 42.3564148 42.3564148 53.83108521 53.83108521 0 0 0 30.2060852-12.09429932L535.68103028 758.99462891h290.36288451a74.98168945 74.98168945 0 0 0 75.59967042-75.59967042v-483.86260986A70.76293945 70.76293945 0 0 0 829.08190918 123.875H194.01995849z m411.30010986 447.63739013H278.67510987a39.31842041 39.31842041 0 0 1 0-78.63766479h326.58728026a39.31842041 39.31842041 0 1 1 0 78.63766479zM744.36907959 390.05010987H278.61907959a38.08163452 38.08163452 0 0 1-39.26239014-39.37527466 39.93804932 39.93804932 0 0 1 39.31842042-39.26239014h465.75a39.93804932 39.93804932 0 0 1 28.12472534 67.5 38.08163452 38.08163452 0 0 1-28.12472534 11.1376648z" p-id="4722" fill="#fa8fa8"></path></svg>