<svg t="1624676182138" class="icon" viewBox="0 0 1024 1024" version="1.1" xmlns="http://www.w3.org/2000/svg" p-id="2776" width="200" height="200"><path d="M873.944615 471.197538c-20.322462 20.48-51.2 21.031385-69.789538 2.205539-1.417846-1.496615-2.914462-2.520615-4.174769-4.253539l-237.095385-240.167384-0.551385 689.939692c0 25.127385-23.394462 45.528615-52.224 45.528616-28.908308 0-51.042462-20.48-51.042461-45.528616 0-2.048-0.315077-3.623385 0-5.671384l-0.472615-684.268308-237.095385 240.246154c-1.102769 1.732923-2.599385 2.678154-4.174769 4.174769-18.589538 18.904615-49.388308 18.353231-69.789539-2.205539-20.401231-20.637538-21.819077-52.696615-3.150769-71.60123L465.841231 72.546462a49.309538 49.309538 0 0 1 25.521231-20.164924 45.922462 45.922462 0 0 1 17.801846-3.072c0.630154 0 1.024-0.315077 1.575384-0.315076 0.472615 0 0.866462 0.236308 1.339077 0.236307a50.963692 50.963692 0 0 1 43.480616 23.079385l321.536 327.286154c18.747077 18.825846 17.329231 50.963692-3.15077 71.60123z" p-id="2777" fill="#d81e06"></path></svg>