<svg t="1623870357888" class="icon" viewBox="0 0 1024 1024" version="1.1" xmlns="http://www.w3.org/2000/svg" p-id="1949" width="200" height="200"><path d="M192.512 517.12h-61.44V440.32C131.072 230.4 302.08 59.392 512 59.392S892.928 230.4 892.928 440.32v76.8h-61.44V440.32c0-176.128-143.36-319.488-319.488-319.488S192.512 264.192 192.512 440.32v76.8z" p-id="1950"></path><path d="M161.792 964.608c-74.752 0-136.192-61.44-136.192-136.192V617.472C25.6 542.72 87.04 481.28 161.792 481.28c74.752 0 136.192 61.44 136.192 136.192v210.944c0 75.776-61.44 136.192-136.192 136.192z m0-421.888c-40.96 0-74.752 33.792-74.752 74.752v210.944c0 40.96 33.792 74.752 74.752 74.752s74.752-33.792 74.752-74.752V617.472c0-40.96-33.792-74.752-74.752-74.752zM862.208 964.608c-74.752 0-136.192-61.44-136.192-136.192V617.472c0-74.752 61.44-136.192 136.192-136.192 74.752 0 136.192 61.44 136.192 136.192V788.48c0 17.408-13.312 30.72-30.72 30.72s-30.72-13.312-30.72-30.72V617.472c0-40.96-33.792-74.752-74.752-74.752s-74.752 33.792-74.752 74.752v210.944c0 40.96 33.792 74.752 74.752 74.752 22.528 0 44.032-10.24 58.368-28.672 10.24-13.312 29.696-15.36 43.008-5.12 13.312 10.24 15.36 29.696 5.12 43.008-25.6 33.792-64.512 52.224-106.496 52.224z" p-id="1951"></path><path d="M372.736 859.136H267.264c-17.408 0-30.72-13.312-30.72-30.72s13.312-30.72 30.72-30.72h105.472c17.408 0 30.72 13.312 30.72 30.72s-13.312 30.72-30.72 30.72z" p-id="1952"></path></svg>